<svg xmlns="http://www.w3.org/2000/svg" width="512" height="512" viewBox="0 0 512 512">
  <path d="M482 196c0-52-15-100-43-137-28-38-67-59-108-59-39 0-76 19-104 54-24 29-39 67-45 109-46-6-87 7-115 35-30 29-42 71-35 119 6 45 30 90 66 127a229 229 0 00152 68c37 0 70-13 94-36 24-25 36-57 36-95 61-26 102-101 102-185zM250 73c21-26 47-40 74-43 32 48 30 111-5 157-7 10-14 21-19 32-27-23-57-40-88-50 4-37 18-71 38-96zm-20 408c-39-6-79-27-110-59-32-31-53-71-59-110-4-34 3-65 22-87 56 11 100 57 107 114 8 62 51 112 108 133-19 9-43 12-68 9zm98-32c-57-11-100-57-108-114-8-62-51-113-108-133 20-9 43-12 68-9 40 6 79 27 111 58 32 32 52 71 58 111 5 34-3 65-21 87zm49-100c-7-38-26-75-54-107 5-13 11-26 20-37 38-49 44-115 18-170 20 7 39 21 54 42 24 32 37 74 37 119 0 38-9 74-27 104-13 22-29 39-48 49z"/>
</svg>